<svg xmlns="http://www.w3.org/2000/svg" viewBox="0 0 300 60">
  <!-- Icon -->
  <g transform="translate(10, 5)">
    <circle cx="25" cy="25" r="25" fill="#ea580c"/>
    <path d="M25 10C21.5 10 18.5 12 18.5 15C18.5 17 20 18.5 22 19.5V23H16V26H22V40H28V26H34V23H28V19.5C30 18.5 31.5 17 31.5 15C31.5 12 28.5 10 25 10ZM25 13C27 13 28.5 14 28.5 15C28.5 16 27 17 25 17C23 17 21.5 16 21.5 15C21.5 14 23 13 25 13Z" fill="white"/>
  </g>
  
  <!-- Text -->
  <text x="70" y="38" font-family="system-ui, -apple-system, sans-serif" font-weight="bold" font-size="32" fill="#18181b">
    Recipe <tspan fill="#ea580c">Master</tspan>
  </text>
</svg>